<svg xmlns="http://www.w3.org/2000/svg" fill="none" viewBox="0 0 17 32" height="32" width="17">
<g clip-path="url(#clip0_2054_891)" id="icon-lab-tested">
<g id="Group 6571">
<path stroke="#00205C" fill="#00205C" d="M10.4875 25.0623C7.40328 25.0623 4.89404 22.5531 4.89404 19.4688C4.89404 18.1936 5.79406 16.2955 7.56909 13.8273C8.86719 12.0222 10.1839 10.5507 10.1971 10.5361C10.2711 10.4536 10.3767 10.4065 10.4875 10.4065C10.5984 10.4065 10.704 10.4536 10.778 10.5361C10.7911 10.5507 12.1079 12.0222 13.406 13.8273C15.181 16.2955 16.081 18.1936 16.081 19.4688C16.081 22.5531 13.5718 25.0623 10.4875 25.0623ZM10.4875 11.39C10.033 11.9181 9.1111 13.0194 8.19874 14.2885C6.5474 16.5857 5.67453 18.3771 5.67453 19.4688C5.67453 22.1227 7.83362 24.2818 10.4875 24.2818C13.1415 24.2818 15.3005 22.1227 15.3005 19.4688C15.3005 18.377 14.4277 16.5857 12.7763 14.2885C11.864 13.0194 10.9421 11.9181 10.4875 11.39Z" id="Vector"></path>
<path stroke="#00205C" fill="#00205C" d="M9.90951 5.4056H1.81556C0.96281 5.4056 0.269043 4.71183 0.269043 3.85908V1.54652C0.269043 0.693767 0.96281 0 1.81556 0H9.90951C10.7623 0 11.456 0.693767 11.456 1.54652V3.85908C11.456 4.71183 10.7623 5.4056 9.90951 5.4056ZM1.81556 0.780488C1.39318 0.780488 1.04953 1.12413 1.04953 1.54652V3.85908C1.04953 4.28147 1.39318 4.62511 1.81556 4.62511H9.90951C10.3319 4.62511 10.6755 4.28147 10.6755 3.85908V1.54652C10.6755 1.12413 10.3319 0.780488 9.90951 0.780488H1.81556Z" id="Vector_2"></path>
<path stroke="#00205C" fill="#00205C" d="M5.86251 31.9999C3.41583 31.9999 1.42529 30.0094 1.42529 27.5627V5.01524C1.42529 4.79971 1.60001 4.625 1.81554 4.625H9.90948C10.125 4.625 10.2997 4.79971 10.2997 5.01524V8.48419C10.2997 8.69972 10.125 8.87444 9.90948 8.87444C9.69395 8.87444 9.51924 8.69972 9.51924 8.48419V5.40549H2.20578V27.5627C2.20578 29.579 3.84619 31.2194 5.86251 31.2194C7.87883 31.2194 9.51924 29.579 9.51924 27.5627C9.51924 27.3471 9.69395 27.1724 9.90948 27.1724C10.125 27.1724 10.2997 27.3471 10.2997 27.5627C10.2997 30.0094 8.30922 31.9999 5.86251 31.9999Z" id="Vector_3"></path>
<path stroke="#00205C" fill="#00205C" d="M6.44065 13.4995H1.81554C1.60001 13.4995 1.42529 13.3248 1.42529 13.1092C1.42529 12.8937 1.60001 12.719 1.81554 12.719H6.44065C6.65618 12.719 6.83089 12.8937 6.83089 13.1092C6.83089 13.3248 6.65618 13.4995 6.44065 13.4995Z" id="Vector_4"></path>
</g>
</g>
<defs>
<clipPath id="clip0_2054_891">
<rect transform="translate(0.269043)" fill="white" height="32" width="16"></rect>
</clipPath>
</defs>
</svg>
