<svg xmlns="http://www.w3.org/2000/svg" fill="none" viewBox="0 0 33 32" height="32" width="33">
<g clip-path="url(#clip0_2054_897)" id="icon-organic">
<g id="care">
<g id="Group">
<path stroke-linejoin="round" stroke-linecap="round" stroke-width="1.5" stroke="#00205C" d="M0.768066 23.4999L3.76607 22.0034L8.76607 30.0034L5.76807 31.4999" id="Vector"></path>
<path stroke-linejoin="round" stroke-linecap="round" stroke-width="1.5" stroke="#00205C" d="M13.7681 23H19.7681C20.8681 23 21.7681 22.1 21.7681 21C21.7681 19.9 20.8681 19 19.7681 19H11.8496C11.1416 19 10.4461 19.188 9.83407 19.545L4.76807 22.5" id="Vector_2"></path>
<path stroke-linejoin="round" stroke-linecap="round" stroke-width="1.5" stroke="#00205C" d="M20.2658 22.9999L29.0058 19.6649C30.0218 19.2439 31.1978 19.7309 31.6188 20.7474C32.0398 21.7639 31.5528 22.9394 30.5363 23.3604L21.7008 27.1039C21.0838 27.3654 20.4203 27.4999 19.7503 27.4999H11.8978C11.3548 27.4999 10.8213 27.6474 10.3558 27.9274L8.56982 28.9999" id="Vector_3"></path>
</g>
<g id="Group_2">
<path stroke-linejoin="round" stroke-linecap="round" stroke-width="1.5" stroke="#00205C" d="M18.768 9.5C19.204 1.1175 10.768 3 8.76795 0.5C8.76795 1 6.76795 11.5 16.081 10.633" id="Vector_4"></path>
<path stroke-linejoin="round" stroke-linecap="round" stroke-width="1.5" stroke="#00205C" d="M22.2679 10.5001C29.2679 12.0001 29.3409 3.81812 29.3409 3.81812C29.3409 3.81812 20.7679 4.00012 22.2679 10.5001Z" id="Vector_5"></path>
<path stroke-linejoin="round" stroke-linecap="round" stroke-width="1.5" stroke="#00205C" d="M28.1166 17.5029C27.2931 16.5829 26.0981 16.0034 24.7661 16.0034C24.6811 16.0034 24.5986 16.0114 24.5151 16.0159C23.7091 14.8034 22.3316 14.0034 20.7661 14.0034C19.1796 14.0034 17.7881 14.8264 16.9866 16.0664C16.7516 16.0284 16.5121 16.0034 16.2661 16.0034C15.3396 16.0034 14.4806 16.2849 13.7661 16.7654" id="Vector_6"></path>
<path stroke-linejoin="round" stroke-linecap="round" stroke-width="1.5" stroke="#00205C" d="M14.7681 6.5C14.7681 6.5 20.2681 9 20.2681 14" id="Vector_7"></path>
</g>
</g>
</g>
<defs>
<clipPath id="clip0_2054_897">
<rect transform="translate(0.268066)" fill="white" height="32" width="32.002"></rect>
</clipPath>
</defs>
</svg>
