<svg xmlns="http://www.w3.org/2000/svg" fill="none" viewBox="0 0 32 32" height="32" width="32">
<g id="icon-traceable">
<path fill="#00205C" d="M6.70156 29.8325L11.2015 25.2225C11.325 25.096 11.3957 24.9209 11.3957 24.742C11.3957 24.5631 11.325 24.388 11.2015 24.2615L11.0182 24.0737L11.1988 23.8887C12.4686 24.9626 14.0282 25.5031 15.5841 25.5024C17.3473 25.5032 19.1168 24.8112 20.4621 23.4325L19.993 22.952L20.4621 23.4324C21.8078 22.0541 22.4833 20.2414 22.4826 18.435C22.4833 16.6286 21.8078 14.8159 20.4621 13.4377C19.1168 12.0589 17.3473 11.3669 15.5841 11.3677C13.8208 11.3669 12.0514 12.0589 10.7061 13.4377C9.36031 14.8158 8.68479 16.6286 8.68555 18.435C8.68487 20.029 9.2125 21.6267 10.2607 22.9277L10.0802 23.1127L9.89687 22.9249C9.63781 22.6595 9.21787 22.6595 8.95882 22.9249L4.45891 27.5349C4.3354 27.6615 4.26465 27.8365 4.26465 28.0155C4.26465 28.1945 4.3354 28.3695 4.45891 28.496L5.76355 29.8325C5.88706 29.959 6.05791 30.0315 6.23257 30.0315C6.40723 30.0315 6.5781 29.959 6.70161 29.8325H6.70156ZM11.6441 14.3987C12.7338 13.2827 14.1558 12.7275 15.584 12.7267C17.0122 12.7275 18.4343 13.2827 19.5239 14.3987C20.6132 15.515 21.1552 16.9719 21.1559 18.435C21.1552 19.8981 20.6132 21.3549 19.524 22.4714C18.4343 23.5873 17.0122 24.1426 15.584 24.1434C14.1558 24.1426 12.7338 23.5873 11.6441 22.4714C10.5549 21.355 10.0129 19.8981 10.0121 18.435C10.0129 16.9719 10.5549 15.515 11.6441 14.3987ZM6.23252 28.391L5.86595 28.0154L9.4278 24.3664L9.79437 24.742L6.23252 28.391Z" id="Vector"></path>
<path fill="#00205C" d="M12.1079 18.2882C12.1079 18.1092 12.0371 17.9342 11.9136 17.8076C11.7901 17.6811 11.6192 17.6086 11.4446 17.6086C11.2699 17.6086 11.099 17.6811 10.9755 17.8076C10.852 17.9342 10.7812 18.1092 10.7812 18.2882C10.7812 18.4672 10.852 18.6421 10.9755 18.7687C11.099 18.8952 11.2699 18.9677 11.4446 18.9677C11.6192 18.9677 11.7901 18.8952 11.9136 18.7687C12.0371 18.6421 12.1079 18.4671 12.1079 18.2882Z" id="Vector_2"></path>
<path fill="#00205C" d="M17.7502 18.9677C18.1165 18.9677 18.4135 18.6635 18.4135 18.2882C18.4135 17.9129 18.1165 17.6086 17.7502 17.6086C17.3839 17.6086 17.0869 17.9129 17.0869 18.2882C17.0869 18.6635 17.3839 18.9677 17.7502 18.9677Z" id="Vector_3"></path>
<path fill="#00205C" d="M15.6487 18.9677C16.015 18.9677 16.312 18.6635 16.312 18.2882C16.312 17.9129 16.015 17.6086 15.6487 17.6086C15.2823 17.6086 14.9854 17.9129 14.9854 18.2882C14.9854 18.6635 15.2823 18.9677 15.6487 18.9677Z" id="Vector_4"></path>
<path fill="#00205C" d="M14.1585 18.5501C14.2996 18.2037 14.1399 17.8058 13.8019 17.6612C13.4638 17.5166 13.0754 17.6801 12.9342 18.0265C12.7931 18.3728 12.9528 18.7708 13.2908 18.9154C13.6289 19.0599 14.0173 18.8964 14.1585 18.5501Z" id="Vector_5"></path>
<path fill="#00205C" d="M19.8518 18.9677C20.0265 18.9677 20.1973 18.8952 20.3208 18.7687C20.4443 18.6421 20.5151 18.4671 20.5151 18.2882C20.5151 18.1092 20.4443 17.9342 20.3208 17.8076C20.1973 17.6811 20.0264 17.6086 19.8518 17.6086C19.6771 17.6086 19.5063 17.6811 19.3828 17.8076C19.2593 17.9342 19.1885 18.1092 19.1885 18.2882C19.1885 18.4672 19.2593 18.6421 19.3828 18.7687C19.5063 18.8952 19.6771 18.9677 19.8518 18.9677Z" id="Vector_6"></path>
<path fill="#00205C" d="M32.0003 24.8043C31.9978 20.8421 28.8441 17.6112 24.9766 17.6086H23.9084C23.542 17.6086 23.2451 17.9129 23.2451 18.2882C23.2451 18.6635 23.542 18.9677 23.9084 18.9677L24.9766 18.9677C26.5428 18.9679 27.964 19.6227 28.9996 20.6828C30.0343 21.7437 30.6736 23.1997 30.6737 24.8043V24.8043C30.6736 26.4088 30.0343 27.8648 28.9996 28.9258C27.964 29.9858 26.5428 30.6407 24.9766 30.6409H16.4797C16.1134 30.6409 15.8164 30.9451 15.8164 31.3204C15.8164 31.6957 16.1134 31.9999 16.4797 31.9999V31.9999H24.9766C28.8441 31.9973 31.9978 28.7664 32.0003 24.8043V24.8043L32.0003 24.8043Z" id="Vector_7"></path>
<path fill="#00205C" d="M21.7114 10.3129C21.9704 10.5783 22.3904 10.5783 22.6495 10.313L27.1166 5.73654C27.2401 5.61001 27.3108 5.43498 27.3108 5.25605C27.3108 5.07712 27.2401 4.90201 27.1166 4.77551L22.6495 0.199045C22.3904 -0.0663483 21.9705 -0.0663483 21.7114 0.199045C21.4523 0.464438 21.4524 0.894713 21.7114 1.16013V1.16008L25.0541 4.58458C25.0283 4.58142 25.0029 4.57654 24.9763 4.57654L7.02376 4.57649C3.15627 4.57906 0.00253236 7.80993 0 11.7721C0.00253236 15.7342 3.15625 18.9651 7.02374 18.9677H7.59274C7.95906 18.9677 8.25602 18.6635 8.25602 18.2882C8.25602 17.913 7.95906 17.6087 7.59274 17.6087V17.6087H7.02374C5.45749 17.6085 4.03633 16.9536 3.0007 15.8936C1.96601 14.8326 1.32676 13.3767 1.32661 11.7721C1.32676 10.1675 1.96601 8.71158 3.0007 7.6506C4.03633 6.59059 5.45749 5.93574 7.02374 5.93554H24.9762C25.0029 5.93554 25.0282 5.93066 25.054 5.9275L21.7114 9.35189C21.4523 9.61726 21.4523 10.0475 21.7114 10.3129ZM25.6317 5.17627L25.7095 5.25597L25.6317 5.33568C25.6347 5.30922 25.6395 5.2833 25.6395 5.256C25.6395 5.22869 25.6347 5.2027 25.6316 5.17624L25.6317 5.17627Z" id="Vector_8"></path>
</g>
</svg>
