<svg xmlns="http://www.w3.org/2000/svg" fill="none" viewBox="0 0 41 29" height="29" width="41">
<path stroke-miterlimit="22.93" stroke-width="1.5" stroke="#00205C" d="M1 1.85477C13.9994 -1.10625 27.0006 4.8158 40 1.85477V27.1452C27.0006 30.1062 13.9994 24.1842 1 27.1452V1.85477Z" clip-rule="evenodd" fill-rule="evenodd"></path>
<path stroke-miterlimit="22.93" stroke-width="1.5" stroke="#00205C" d="M21 9C27.3333 9 33.6667 9 40 9"></path>
<path stroke-miterlimit="22.93" stroke-width="1.5" stroke="#00205C" d="M21 15.1522C27.3333 15.9587 33.6667 16.6304 40 15"></path>
<path stroke-miterlimit="22.93" stroke-width="1.5" stroke="#00205C" d="M1 21C13.9994 17.5359 27.0006 24.4641 40 21"></path>
<path stroke-miterlimit="22.93" stroke-width="1.5" stroke="#00205C" d="M21 2V21"></path>
<path stroke-miterlimit="22.93" stroke-width="1.5" stroke="#00205C" d="M11.0011 6L12.958 9.16521L17 9.81995L14.17 12.4313L14.7086 16L11.0011 14.4488L7.29357 16L7.83005 12.4294L5 9.81995L9.04199 9.16521L11.0011 6Z" clip-rule="evenodd" fill-rule="evenodd"></path>
</svg>
